<svg width="30.000061" height="23.161621" viewBox="0 0 30.0001 23.1616" fill="none" xmlns="http://www.w3.org/2000/svg" xmlns:xlink="http://www.w3.org/1999/xlink">
	<desc>
			Created with Pixso.
	</desc>
	<defs/>
	<path d="M29.68 10.03L15.46 0.14C15.18 -0.05 14.81 -0.05 14.53 0.14L0.31 10.03C-0.03 10.27 -0.11 10.74 0.15 11.07C0.4 11.4 0.89 11.47 1.24 11.23L15 1.65L28.76 11.23C28.89 11.33 29.06 11.37 29.21 11.37C29.45 11.37 29.69 11.27 29.84 11.07C30.1 10.74 30.02 10.27 29.68 10.03Z" fill="#FFFFFF" fill-opacity="1.000000" fill-rule="nonzero"/>
	<path d="M25.91 9.14C25.48 9.14 25.13 9.47 25.13 9.88L25.13 21.67L18.89 21.67L18.89 15.24C18.89 13.2 17.14 11.53 15 11.53C12.85 11.53 11.1 13.2 11.1 15.24L11.1 21.67L4.86 21.67L4.86 9.88C4.86 9.47 4.51 9.14 4.08 9.14C3.65 9.14 3.3 9.47 3.3 9.88L3.3 22.42C3.3 22.82 3.65 23.16 4.08 23.16L11.88 23.16C12.29 23.16 12.62 22.86 12.65 22.47C12.66 22.46 12.66 22.44 12.66 22.42L12.66 15.24C12.66 14.01 13.71 13.02 15 13.02C16.28 13.02 17.33 14.01 17.33 15.24L17.33 22.42C17.33 22.44 17.34 22.46 17.34 22.47C17.37 22.86 17.7 23.16 18.11 23.16L25.91 23.16C26.34 23.16 26.69 22.82 26.69 22.42L26.69 9.88C26.69 9.47 26.34 9.14 25.91 9.14Z" fill="#FFFFFF" fill-opacity="1.000000" fill-rule="nonzero"/>
</svg>
