<svg width="30.000000" height="26.659180" viewBox="0 0 30 26.6592" fill="none" xmlns="http://www.w3.org/2000/svg" xmlns:xlink="http://www.w3.org/1999/xlink">
	<desc>
			Created with Pixso.
	</desc>
	<defs/>
	<path d="M29.99 10.21C29.99 10.2 29.99 10.2 29.99 10.19C29.99 10.16 29.98 10.13 29.97 10.1C29.96 10.07 29.95 10.04 29.94 10.02C29.93 10 29.91 9.97 29.89 9.95C29.87 9.93 29.85 9.9 29.82 9.88C29.81 9.88 29.81 9.87 29.8 9.86L24.99 6.54L24.99 3.1C24.99 2.37 24.32 1.77 23.49 1.77L18.08 1.77L15.91 0.27C15.37 -0.1 14.62 -0.1 14.08 0.27L11.91 1.77L6.49 1.77C5.67 1.77 4.99 2.37 4.99 3.1L4.99 6.54L0.19 9.86C0.18 9.87 0.18 9.88 0.17 9.88C0.14 9.9 0.12 9.93 0.1 9.95C0.08 9.97 0.06 10 0.05 10.02C0.04 10.04 0.03 10.07 0.02 10.1C0.01 10.13 0 10.15 0 10.19C0 10.19 0 10.2 0 10.21L0 25.32C0 25.46 0.03 25.61 0.08 25.74C-0.04 25.89 -0.03 26.1 0.09 26.24C0.21 26.39 0.43 26.46 0.63 26.41C0.88 26.57 1.18 26.65 1.49 26.65L28.5 26.65C28.81 26.65 29.11 26.57 29.36 26.4C29.41 26.42 29.45 26.42 29.49 26.42C29.68 26.42 29.85 26.34 29.93 26.19C30.02 26.05 30.01 25.88 29.91 25.74C29.97 25.61 29.99 25.46 30 25.32L30 10.21L29.99 10.21ZM14.69 0.97C14.87 0.85 15.12 0.85 15.29 0.97L16.44 1.77L13.54 1.77L14.69 0.97ZM1.62 25.77L14.69 16.74C14.87 16.62 15.12 16.62 15.29 16.74L28.37 25.77L1.62 25.77ZM28.99 25.07L15.91 16.04C15.37 15.67 14.62 15.67 14.08 16.04L0.99 25.07L0.99 10.89L9.19 16.54C9.41 16.69 9.72 16.66 9.89 16.47C10.06 16.27 10.02 15.99 9.8 15.84L1.48 10.1L4.99 7.67L4.99 11.1C4.99 11.35 5.22 11.55 5.49 11.55C5.77 11.55 5.99 11.35 5.99 11.1L5.99 3.1C5.99 2.86 6.22 2.66 6.49 2.66L23.49 2.66C23.77 2.66 23.99 2.86 23.99 3.1L23.99 11.1C23.99 11.35 24.22 11.55 24.49 11.55C24.77 11.55 24.99 11.35 24.99 11.1L24.99 7.67L28.51 10.1L20.17 15.85C19.96 16 19.92 16.28 20.09 16.48C20.25 16.67 20.57 16.7 20.79 16.55L28.99 10.89L28.99 25.07Z" fill="#FFFFFF" fill-opacity="1.000000" fill-rule="nonzero"/>
	<path d="M9.99 5.77L19.99 5.77C20.27 5.77 20.49 5.57 20.49 5.32C20.49 5.08 20.27 4.88 19.99 4.88L9.99 4.88C9.72 4.88 9.49 5.08 9.49 5.32C9.49 5.57 9.72 5.77 9.99 5.77Z" fill="#FFFFFF" fill-opacity="1.000000" fill-rule="nonzero"/>
	<path d="M20.49 7.99C20.49 7.75 20.27 7.55 19.99 7.55L9.99 7.55C9.72 7.55 9.49 7.75 9.49 7.99C9.49 8.24 9.72 8.44 9.99 8.44L19.99 8.44C20.27 8.44 20.49 8.24 20.49 7.99Z" fill="#FFFFFF" fill-opacity="1.000000" fill-rule="nonzero"/>
	<path d="M20.49 10.66C20.49 10.41 20.27 10.21 19.99 10.21L15.49 10.21C15.22 10.21 14.99 10.41 14.99 10.66C14.99 10.9 15.22 11.1 15.49 11.1L19.99 11.1C20.27 11.1 20.49 10.9 20.49 10.66Z" fill="#FFFFFF" fill-opacity="1.000000" fill-rule="nonzero"/>
</svg>
