<svg width="30.000000" height="26.659180" viewBox="0 0 30 26.6592" fill="none" xmlns="http://www.w3.org/2000/svg" xmlns:xlink="http://www.w3.org/1999/xlink">
	<desc>
			Created with Pixso.
	</desc>
	<defs/>
	<path d="M29.21 20.56L23.14 16.96C22.37 16.51 21.33 16.66 20.76 17.31L18.99 19.33C18.77 19.59 18.35 19.67 18.02 19.51L17.69 19.34C16.57 18.8 15.18 18.13 12.39 15.64C9.59 13.16 8.83 11.92 8.23 10.93L8.04 10.64C7.86 10.34 7.94 9.97 8.24 9.77L10.51 8.2C11.24 7.69 11.41 6.78 10.9 6.09L6.85 0.69C6.33 0 5.28 -0.21 4.47 0.22L1.94 1.57C1.14 1.99 0.55 2.67 0.3 3.46C-0.61 6.42 0.08 11.53 8.55 19.06C15.28 25.04 20.3 26.65 23.75 26.65C24.54 26.66 25.33 26.57 26.1 26.38C26.99 26.16 27.75 25.64 28.22 24.93L29.74 22.67C30.23 21.96 29.99 21.03 29.21 20.56ZM28.88 22.22L27.36 24.48C27.02 24.99 26.47 25.36 25.83 25.53C22.76 26.28 17.38 25.65 9.25 18.43C1.12 11.2 0.42 6.43 1.27 3.69C1.45 3.12 1.87 2.64 2.45 2.34L4.99 0.98C5.34 0.8 5.79 0.89 6.02 1.19L8.22 4.12L10.07 6.58C10.29 6.88 10.21 7.28 9.9 7.5L7.63 9.07C6.93 9.54 6.74 10.39 7.16 11.07L7.34 11.36C7.98 12.4 8.78 13.7 11.68 16.27C14.58 18.85 16.03 19.56 17.21 20.12L17.53 20.28C18.29 20.66 19.25 20.49 19.78 19.87L21.55 17.85C21.8 17.57 22.24 17.51 22.58 17.7L28.65 21.3C28.99 21.5 29.09 21.91 28.88 22.22Z" fill="#FFFFFF" fill-opacity="1.000000" fill-rule="nonzero"/>
	<path d="M16.99 4.44C21.69 4.44 25.49 7.82 25.49 11.99C25.49 12.24 25.72 12.44 25.99 12.44C26.27 12.44 26.49 12.24 26.49 11.99C26.49 7.33 22.24 3.56 16.99 3.55C16.72 3.55 16.49 3.75 16.49 4C16.49 4.24 16.72 4.44 16.99 4.44Z" fill="#FFFFFF" fill-opacity="1.000000" fill-rule="nonzero"/>
	<path d="M16.99 7.11C20.03 7.11 22.49 9.29 22.49 11.99C22.49 12.24 22.72 12.44 22.99 12.44C23.27 12.44 23.49 12.24 23.49 11.99C23.49 8.8 20.58 6.22 16.99 6.22C16.72 6.22 16.49 6.42 16.49 6.66C16.49 6.91 16.72 7.11 16.99 7.11Z" fill="#FFFFFF" fill-opacity="1.000000" fill-rule="nonzero"/>
	<path d="M16.99 9.77C18.37 9.77 19.49 10.77 19.49 11.99C19.49 12.24 19.72 12.44 19.99 12.44C20.27 12.44 20.49 12.24 20.49 11.99C20.49 10.28 18.93 8.88 16.99 8.88C16.72 8.88 16.49 9.08 16.49 9.33C16.49 9.57 16.72 9.77 16.99 9.77Z" fill="#FFFFFF" fill-opacity="1.000000" fill-rule="nonzero"/>
</svg>
