<svg width="24.000000" height="24.000000" viewBox="0 0 24 24" fill="none" xmlns="http://www.w3.org/2000/svg" xmlns:xlink="http://www.w3.org/1999/xlink">
	<desc>
			Created with Pixso.
	</desc>
	<defs>
		<clipPath id="clip105_495">
			<rect id="phone (1)" width="24.000000" height="24.000000" fill="white" fill-opacity="0"/>
		</clipPath>
	</defs>
	<rect id="phone (1)" width="24.000000" height="24.000000" fill="#FFFFFF" fill-opacity="0"/>
	<g clip-path="url(#clip105_495)">
		<path id="Vector" d="M23.34 17.61L19.99 14.26C18.8 13.06 16.76 13.54 16.28 15.1C15.93 16.17 14.73 16.77 13.65 16.53C11.26 15.93 8.03 12.82 7.43 10.31C7.07 9.24 7.79 8.04 8.87 7.68C10.42 7.2 10.9 5.17 9.71 3.97L6.36 0.62C5.4 -0.21 3.96 -0.21 3.13 0.62L0.85 2.9C-1.42 5.29 1.09 11.63 6.71 17.25C12.34 22.87 18.68 25.5 21.07 23.11L23.34 20.84C24.18 19.88 24.18 18.45 23.34 17.61Z" fill="#0A8E00" fill-opacity="1.000000" fill-rule="nonzero"/>
	</g>
</svg>
